<svg id="Layer_1" data-name="Layer 1" xmlns="http://www.w3.org/2000/svg" viewBox="0 0 667 206">
  <defs>
    <style>
      .cls-1 {
        <!-- fill: #272c30; -->
        fill: #fff;
      }

      .cls-2, .cls-3 {
        fill: none;
      }

      .cls-2 {
        stroke: #3b419a;
        stroke-linecap: round;
        stroke-miterlimit: 10;
      }
    </style>
  </defs>
  <title>logo</title>
  <g>
    <path class="cls-1" d="M262.58,257.45l-64.39,26c1,15.85-6.95,20.54-10,21.56a23.68,23.68,0,0,1-10.38-.34c-8-2.09-14.54-8.3-19.52-18.45-2.54-5.18-16.95-47.57-27.15-78.19l72.36-14.59L225,252.66a5.47,5.47,0,0,0,10.28-3.73l-23.06-63.61a5.46,5.46,0,0,0-6.22-3.5l-83,16.74a5.47,5.47,0,0,0-4.11,7.08c2.62,7.91,25.76,77.47,29.67,85.43,8,16.36,18.31,22.65,26,24.53,3,0.73,12.09,3.13,19.21,1.1,13.52-3.27,48.4-21.87,60.8-28.38C268.19,281.14,262.58,257.45,262.58,257.45Z" transform="translate(-81 -146)"/>
    <path class="cls-1" d="M150.19,223.61a2.38,2.38,0,0,1-.57-4.69l43.44-10.71a2.38,2.38,0,1,1,1.14,4.62l-43.44,10.71A2.39,2.39,0,0,1,150.19,223.61Z" transform="translate(-81 -146)"/>
    <path class="cls-1" d="M155,238.81a2.38,2.38,0,0,1-.62-4.68l43.45-11.66a2.38,2.38,0,1,1,1.23,4.6l-43.45,11.66A2.38,2.38,0,0,1,155,238.81Z" transform="translate(-81 -146)"/>
    <path class="cls-1" d="M160.83,253.69a2.38,2.38,0,0,1-.64-4.67l42.89-12.08a2.38,2.38,0,0,1,1.29,4.58L161.48,253.6A2.38,2.38,0,0,1,160.83,253.69Z" transform="translate(-81 -146)"/>
    <path class="cls-1" d="M191.08,261a2.38,2.38,0,0,1-.71-4.65l17.5-5.44a2.38,2.38,0,0,1,1.41,4.54l-17.5,5.44A2.38,2.38,0,0,1,191.08,261Z" transform="translate(-81 -146)"/>
    <path class="cls-2" d="M172.09,290.94" transform="translate(-81 -146)"/>
    <path class="cls-2" d="M223.57,283.39" transform="translate(-81 -146)"/>
  </g>
  <g>
    <path class="cls-1" d="M316,225.64L306.67,272H290.14l-17.58-65.17,16.06-2.19,10.17,50.73,9.79-48.93,14.25-1.81,10.83,50.73,9.12-50.73,15.29,1.52L341.44,272H325.58Z" transform="translate(-81 -146)"/>
    <path class="cls-1" d="M382.92,273.14c-15.29,0-24-6.46-24-26,0-20.24,8.93-26.41,22.61-26.41,13.49,0,21.57,5.13,21.57,29.64l-29.83,3.13c0.86,6.08,3.71,8.46,9.5,8.46a27.64,27.64,0,0,0,14.73-3.9l4.18,9.6A31.75,31.75,0,0,1,382.92,273.14Zm6.65-31.07c-0.19-7.41-2.95-10.26-8.08-10.26-5.79,0-8.83,3.61-8.83,11.5v1.43Z" transform="translate(-81 -146)"/>
    <path class="cls-1" d="M410.62,205.5l13.87-1.71v23.75c2.47-4.85,6.93-6.84,13.68-6.84,10.93,0,17.67,6.94,17.67,26.22,0,19.76-8.83,26.22-23.09,26.22a73.35,73.35,0,0,1-22.13-3V205.5Zm21.09,56.62c7.32,0,10.17-3.71,10.17-15.2,0-9.31-1.33-15-8.46-15-4.37,0-6.84,2.19-8.93,6v23.18A25,25,0,0,0,431.71,262.12Z" transform="translate(-81 -146)"/>
    <path class="cls-1" d="M498.45,287A40.09,40.09,0,0,1,487.62,273c-17.77-1.24-24.8-12.16-24.8-34.2,0-23.47,8.08-34.39,28.6-34.39S520,215.28,520,238.75c0,19.67-5.7,30.59-19.57,33.54,2.09,3,6.46,6,11.4,8.83Zm6.93-48.26c0-13.49-2.18-21.66-13.78-21.66-12,0-14.15,8.17-14.15,21.66s2.18,21.66,14.15,21.66C503.2,260.41,505.38,252.24,505.38,238.75Z" transform="translate(-81 -146)"/>
    <path class="cls-1" d="M563.13,273a51.72,51.72,0,0,1-2.37-7.41c-2.75,4.66-7,7.51-14.63,7.51-16.34,0-17.67-11.5-17.67-21.76V223.45l13.87-1.62v27.65c0,8.55,1.71,12.35,7.13,12.35,4.94,0,7.13-2,9.31-5.89V223.45l13.87-1.62v31c0,5.8.1,11.88,1.33,17.58Z" transform="translate(-81 -146)"/>
    <path class="cls-1" d="M580.3,246.92c0-17.86,6.75-26.22,23.75-26.22s23.75,8.36,23.75,26.22-6.75,26.22-23.75,26.22S580.3,264.78,580.3,246.92Zm33.54,0c0-9.41-1.42-15.11-9.79-15.11s-9.79,5.7-9.79,15.11S595.69,262,604,262,613.83,256.32,613.83,246.92Z" transform="translate(-81 -146)"/>
    <path class="cls-1" d="M650.15,274.09c-9.31-5.23-10.64-15.58-10.64-25.08V232.1H632.2V221.84h7.32V207.59l13.87-1.71v16h10.36L662.5,232.1h-9.12v17.2c0,7.6,1.42,13.21,6.08,18.33Z" transform="translate(-81 -146)"/>
    <path class="cls-1" d="M691.1,273.14c-15.29,0-24-6.46-24-26,0-20.24,8.93-26.41,22.61-26.41,13.49,0,21.57,5.13,21.57,29.64l-29.83,3.13c0.86,6.08,3.71,8.46,9.5,8.46a27.64,27.64,0,0,0,14.73-3.9l4.18,9.6A31.75,31.75,0,0,1,691.1,273.14Zm6.65-31.07c-0.19-7.41-2.95-10.26-8.08-10.26-5.79,0-8.83,3.61-8.83,11.5v1.43Z" transform="translate(-81 -146)"/>
  </g>
</svg>
